<svg width="386" height="386" viewBox="0 0 386 386" fill="none" xmlns="http://www.w3.org/2000/svg">
<rect width="386" height="386" rx="60" fill="#D9C146"/>
<path d="M360 193.5L108.75 338.559L108.75 48.4407L360 193.5Z" fill="#D94646"/>
<path d="M220.4 198.6V294.2C220.4 309 216.2 320.4 207.8 328.4C199.533 336.4 188.333 340.4 174.2 340.4C159.4 340.4 147.533 336.2 138.6 327.8C129.667 319.4 125.2 307.467 125.2 292H159.2C159.2 297.867 160.4 302.333 162.8 305.4C165.2 308.333 168.667 309.8 173.2 309.8C177.333 309.8 180.533 308.467 182.8 305.8C185.067 303.133 186.2 299.267 186.2 294.2V198.6H220.4ZM298.825 340.4C288.558 340.4 279.358 338.733 271.225 335.4C263.092 332.067 256.558 327.133 251.625 320.6C246.825 314.067 244.292 306.2 244.025 297H280.425C280.958 302.2 282.758 306.2 285.825 309C288.892 311.667 292.892 313 297.825 313C302.892 313 306.892 311.867 309.825 309.6C312.758 307.2 314.225 303.933 314.225 299.8C314.225 296.333 313.025 293.467 310.625 291.2C308.358 288.933 305.492 287.067 302.025 285.6C298.692 284.133 293.892 282.467 287.625 280.6C278.558 277.8 271.158 275 265.425 272.2C259.692 269.4 254.758 265.267 250.625 259.8C246.492 254.333 244.425 247.2 244.425 238.4C244.425 225.333 249.158 215.133 258.625 207.8C268.092 200.333 280.425 196.6 295.625 196.6C311.092 196.6 323.558 200.333 333.025 207.8C342.492 215.133 347.558 225.4 348.225 238.6H311.225C310.958 234.067 309.292 230.533 306.225 228C303.158 225.333 299.225 224 294.425 224C290.292 224 286.958 225.133 284.425 227.4C281.892 229.533 280.625 232.667 280.625 236.8C280.625 241.333 282.758 244.867 287.025 247.4C291.292 249.933 297.958 252.667 307.025 255.6C316.092 258.667 323.425 261.6 329.025 264.4C334.758 267.2 339.692 271.267 343.825 276.6C347.958 281.933 350.025 288.8 350.025 297.2C350.025 305.2 347.958 312.467 343.825 319C339.825 325.533 333.958 330.733 326.225 334.6C318.492 338.467 309.358 340.4 298.825 340.4Z" fill="#1B0F0F"/>
</svg>
